<?xml version="1.0" encoding="utf-8"?>
<!-- Generator: Adobe Illustrator 16.0.0, SVG Export Plug-In . SVG Version: 6.00 Build 0)  -->
<!DOCTYPE svg PUBLIC "-//W3C//DTD SVG 1.1//EN" "http://www.w3.org/Graphics/SVG/1.1/DTD/svg11.dtd">
<svg version="1.1" id="Layer_1" xmlns="http://www.w3.org/2000/svg" xmlns:xlink="http://www.w3.org/1999/xlink" x="0px" y="0px"
	 width="109px" height="54.75px" viewBox="0 0 109 54.75" enable-background="new 0 0 109 54.75" xml:space="preserve">
<path fill="#FFFFFF" d="M105.688,14.205c1.104,0,2-0.896,2-2V3.601c0-1.104-0.896-2-2-2H71.562c-0.126,0-0.249,0.015-0.369,0.037
	c-0.008,0.002-0.018,0.001-0.026,0.003c-0.173,0.034-0.333,0.098-0.487,0.174c-0.037,0.018-0.072,0.038-0.109,0.059
	c-0.154,0.089-0.3,0.19-0.425,0.315l-31.001,31V4.184c0-0.809-0.487-1.538-1.235-1.848c-0.747-0.311-1.608-0.139-2.179,0.434
	L1.898,36.604c-0.781,0.78-0.781,2.047,0,2.828c0.78,0.781,2.048,0.781,2.828,0L35.146,9.013v29.005
	c0,0.809,0.487,1.538,1.235,1.848c0.247,0.103,0.507,0.152,0.765,0.152c0.521,0,1.032-0.203,1.415-0.586L69.562,8.43v29.588
	c0,1.104,0.896,2,2,2h34.125c1.104,0,2-0.896,2-2V20.809c0-1.104-0.896-2-2-2H88.625c-1.104,0-2,0.896-2,2s0.896,2,2,2h15.062
	v13.209H73.562V5.601h30.125v6.604C103.688,13.31,104.583,14.205,105.688,14.205z"/>
<g>
	<path fill="#FFFFFF" d="M8.368,49.467c-0.061-1.127-0.132-2.482-0.12-3.489H8.211c-0.277,0.947-0.614,1.954-1.023,3.07L5.755,52.97
		H4.96l-1.312-3.851c-0.385-1.139-0.71-2.183-0.939-3.142H2.685c-0.024,1.007-0.084,2.362-0.157,3.573l-0.217,3.467H1.312
		l0.566-8.084h1.336l1.385,3.91c0.337,0.995,0.614,1.883,0.819,2.723h0.036c0.205-0.815,0.494-1.703,0.855-2.723l1.445-3.91H9.09
		l0.506,8.084H8.572L8.368,49.467z"/>
	<path fill="#FFFFFF" d="M13.791,50.475l-0.842,2.543h-1.084l2.757-8.084h1.264l2.769,8.084h-1.12l-0.867-2.543H13.791z
		 M16.452,49.659l-0.794-2.327c-0.18-0.527-0.301-1.007-0.421-1.475h-0.024c-0.12,0.479-0.252,0.972-0.41,1.463l-0.794,2.339H16.452
		z"/>
	<path fill="#FFFFFF" d="M21.237,45.042c0.529-0.108,1.288-0.168,2.011-0.168c1.119,0,1.842,0.204,2.347,0.659
		c0.409,0.36,0.638,0.912,0.638,1.535c0,1.067-0.674,1.775-1.529,2.063v0.035c0.626,0.217,0.999,0.792,1.191,1.632
		c0.266,1.127,0.458,1.906,0.626,2.219h-1.083c-0.132-0.229-0.313-0.924-0.542-1.932c-0.241-1.115-0.675-1.535-1.625-1.57h-0.987
		v3.502h-1.047V45.042z M22.284,48.724h1.072c1.119,0,1.83-0.611,1.83-1.535c0-1.043-0.758-1.499-1.866-1.511
		c-0.506,0-0.867,0.048-1.035,0.096V48.724z"/>
	<path fill="#FFFFFF" d="M30.15,44.934v8.084h-1.047v-8.084H30.15z"/>
	<path fill="#FFFFFF" d="M34.679,50.475l-0.842,2.543h-1.084l2.757-8.084h1.264l2.769,8.084h-1.12l-0.867-2.543H34.679z
		 M37.34,49.659l-0.794-2.327c-0.18-0.527-0.301-1.007-0.421-1.475H36.1c-0.12,0.479-0.252,0.972-0.41,1.463l-0.794,2.339H37.34z"/>
	<path fill="#FFFFFF" d="M48.783,52.646c-0.566,0.192-1.638,0.456-2.709,0.456c-1.481,0-2.552-0.372-3.299-1.092
		c-0.747-0.695-1.156-1.751-1.144-2.938c0.012-2.687,1.974-4.222,4.635-4.222c1.048,0,1.854,0.204,2.251,0.396l-0.385,1.464
		c-0.445-0.192-0.999-0.348-1.89-0.348c-1.529,0-2.685,0.863-2.685,2.614c0,1.667,1.047,2.65,2.552,2.65
		c0.421,0,0.758-0.048,0.903-0.12v-1.69h-1.252v-1.428h3.022V52.646z"/>
	<path fill="#FFFFFF" d="M53.436,44.934v4.653c0,1.392,0.529,2.1,1.468,2.1c0.963,0,1.493-0.672,1.493-2.1v-4.653h1.83v4.533
		c0,2.495-1.265,3.683-3.383,3.683c-2.046,0-3.25-1.128-3.25-3.706v-4.51H53.436z"/>
	<path fill="#FFFFFF" d="M62.771,46.469h-2.179v-1.535h6.237v1.535h-2.216v6.549h-1.842V46.469z"/>
	<path fill="#FFFFFF" d="M71.022,46.469h-2.179v-1.535h6.237v1.535h-2.216v6.549h-1.842V46.469z"/>
	<path fill="#FFFFFF" d="M82.271,49.6h-2.986v1.919h3.335v1.499h-5.177v-8.084h5.008v1.499h-3.166v1.68h2.986V49.6z"/>
	<path fill="#FFFFFF" d="M85.322,51.135c0.494,0.251,1.252,0.503,2.035,0.503c0.843,0,1.288-0.348,1.288-0.875
		c0-0.504-0.385-0.792-1.36-1.14c-1.348-0.468-2.227-1.211-2.227-2.387c0-1.379,1.156-2.435,3.07-2.435
		c0.915,0,1.589,0.192,2.071,0.408l-0.409,1.475c-0.326-0.155-0.903-0.384-1.698-0.384c-0.795,0-1.18,0.36-1.18,0.78
		c0,0.516,0.458,0.743,1.505,1.139c1.432,0.528,2.107,1.271,2.107,2.411c0,1.355-1.047,2.507-3.275,2.507
		c-0.927,0-1.842-0.24-2.299-0.492L85.322,51.135z"/>
	<path fill="#FFFFFF" d="M97.979,49.6h-2.986v1.919h3.335v1.499h-5.177v-8.084h5.009v1.499h-3.167v1.68h2.986V49.6z"/>
	<path fill="#FFFFFF" d="M100.97,53.018v-8.084h2.143l1.686,2.963c0.481,0.852,0.963,1.858,1.324,2.771h0.037
		c-0.121-1.067-0.157-2.159-0.157-3.37v-2.363h1.686v8.084h-1.926l-1.733-3.118c-0.481-0.864-1.011-1.907-1.409-2.854l-0.037,0.012
		c0.049,1.067,0.073,2.207,0.073,3.526v2.435H100.97z"/>
</g>
</svg>
